# xmcd
#
# Track frame offsets:
#	150
#	15454
#	31592
#	55452
#
# Disc length: 949 seconds
#
# Revision: 0
# Processed by: cddbd v1.5.2PL0 Copyright (c) Steve Scherf et al.
# Submitted via: audiograbber 1.83.01
#
DISCID=2403b304
DTITLE=Big Daddy 'O' - Not For Sale
DYEAR=1900
DGENRE=
TTITLE0=Johnny B. Goode-Promo
TTITLE1=Too Tall To Mombo-Promo
TTITLE2=Feels Like Rain-Promo
TTITLE3=A Song For You-Promo
EXTD=
EXTT0=
EXTT1=
EXTT2=
EXTT3=
PLAYORDER=
